<?xml version="1.0" standalone="no"?>
<!DOCTYPE svg PUBLIC "-//W3C//DTD SVG 20010904//EN"
 "http://www.w3.org/TR/2001/REC-SVG-20010904/DTD/svg10.dtd">
<svg version="1.0" xmlns="http://www.w3.org/2000/svg"
 width="100.000000pt" height="100.000000pt" viewBox="0 0 100.000000 100.000000"
 preserveAspectRatio="xMidYMid meet">
<metadata>
Created by potrace 1.11, written by Peter Selinger 2001-2013
</metadata>
<g transform="translate(0.000000,100.000000) scale(0.100000,-0.100000)"
fill="#000000" stroke="none">
<path d="M200 880 l0 -40 -40 0 -40 0 0 -40 0 -40 -40 0 -40 0 0 -140 0 -140
40 0 40 0 0 -40 0 -40 40 0 40 0 0 -40 0 -40 40 0 40 0 0 -40 0 -40 40 0 40 0
0 -40 0 -40 40 0 40 0 0 -40 0 -40 60 0 60 0 0 40 0 40 40 0 40 0 0 40 0 40
40 0 40 0 0 40 0 40 40 0 40 0 0 40 0 40 40 0 40 0 0 40 0 40 40 0 40 0 0 140
0 140 -40 0 -40 0 0 40 0 40 -40 0 -40 0 0 40 0 40 -100 0 -100 0 0 -40 0 -40
-40 0 -40 0 0 -40 c0 -33 -3 -40 -20 -40 -17 0 -20 7 -20 40 l0 40 -40 0 -40
0 0 40 0 40 -100 0 -100 0 0 -40z m160 -20 c0 -18 -7 -20 -60 -20 -53 0 -60 2
-60 20 0 18 7 20 60 20 53 0 60 -2 60 -20z m400 0 c0 -18 -7 -20 -60 -20 -53
0 -60 2 -60 20 0 18 7 20 60 20 53 0 60 -2 60 -20z m-560 -80 c0 -13 -7 -20
-20 -20 -13 0 -20 7 -20 20 0 13 7 20 20 20 13 0 20 -7 20 -20z m160 -20 l0
-40 40 0 40 0 0 -40 0 -40 60 0 60 0 0 40 0 40 40 0 40 0 0 40 0 40 60 0 60 0
0 -40 0 -40 40 0 40 0 0 -100 0 -100 -40 0 -40 0 0 -40 0 -40 -40 0 -40 0 0
-40 0 -40 -40 0 -40 0 0 -40 0 -40 -40 0 -40 0 0 -40 c0 -33 -3 -40 -20 -40
-17 0 -20 7 -20 40 l0 40 -40 0 -40 0 0 40 0 40 -40 0 -40 0 0 40 0 40 -40 0
-40 0 0 40 0 40 -40 0 -40 0 0 100 0 100 40 0 40 0 0 40 0 40 60 0 60 0 0 -40z
m80 20 c0 -13 -7 -20 -20 -20 -13 0 -20 7 -20 20 0 13 7 20 20 20 13 0 20 -7
20 -20z m160 0 c0 -13 -7 -20 -20 -20 -13 0 -20 7 -20 20 0 13 7 20 20 20 13
0 20 -7 20 -20z m240 0 c0 -13 -7 -20 -20 -20 -13 0 -20 7 -20 20 0 13 7 20
20 20 13 0 20 -7 20 -20z m-720 -160 c0 -93 -1 -100 -20 -100 -19 0 -20 7 -20
100 0 93 1 100 20 100 19 0 20 -7 20 -100z m400 80 c0 -13 -7 -20 -20 -20 -13
0 -20 7 -20 20 0 13 7 20 20 20 13 0 20 -7 20 -20z m400 -80 c0 -93 -1 -100
-20 -100 -19 0 -20 7 -20 100 0 93 1 100 20 100 19 0 20 -7 20 -100z m-720
-160 c0 -13 -7 -20 -20 -20 -13 0 -20 7 -20 20 0 13 7 20 20 20 13 0 20 -7 20
-20z m640 0 c0 -13 -7 -20 -20 -20 -13 0 -20 7 -20 20 0 13 7 20 20 20 13 0
20 -7 20 -20z m-560 -80 c0 -13 -7 -20 -20 -20 -13 0 -20 7 -20 20 0 13 7 20
20 20 13 0 20 -7 20 -20z m480 0 c0 -13 -7 -20 -20 -20 -13 0 -20 7 -20 20 0
13 7 20 20 20 13 0 20 -7 20 -20z m-400 -80 c0 -13 -7 -20 -20 -20 -13 0 -20
7 -20 20 0 13 7 20 20 20 13 0 20 -7 20 -20z m320 0 c0 -13 -7 -20 -20 -20
-13 0 -20 7 -20 20 0 13 7 20 20 20 13 0 20 -7 20 -20z m-240 -80 c0 -13 -7
-20 -20 -20 -13 0 -20 7 -20 20 0 13 7 20 20 20 13 0 20 -7 20 -20z m160 0 c0
-13 -7 -20 -20 -20 -13 0 -20 7 -20 20 0 13 7 20 20 20 13 0 20 -7 20 -20z
m-80 -80 c0 -13 -7 -20 -20 -20 -13 0 -20 7 -20 20 0 13 7 20 20 20 13 0 20
-7 20 -20z"/>
</g>
</svg>
